<?xml version="1.0" encoding="iso-8859-1"?>
<!-- Generator: Adobe Illustrator 16.0.0, SVG Export Plug-In . SVG Version: 6.00 Build 0)  -->
<!DOCTYPE svg PUBLIC "-//W3C//DTD SVG 1.1//EN" "http://www.w3.org/Graphics/SVG/1.1/DTD/svg11.dtd">
<svg version="1.1" id="Capa_1" xmlns="http://www.w3.org/2000/svg" xmlns:xlink="http://www.w3.org/1999/xlink" x="0px" y="0px"
	 width="477.435px" height="477.435px" viewBox="0 0 477.435 477.435" style="enable-background:new 0 0 477.435 477.435;"
	 xml:space="preserve">
<g>
	<g id="Layer_2_24_">
		<g>
			<path d="M370.619,149.412l20.863-29.464c3.786-5.351,2.522-12.751-2.823-16.538l-31.465-22.281
				c-5.346-3.78-12.754-2.515-16.541,2.828l-21.383,30.198c-15.783-7.395-32.729-12.693-50.487-15.514V86.363
				c0-7.862,6.435-14.296,14.297-14.296h7.886c7.866,0,14.3-6.433,14.3-14.288v-43.48c0-7.858-6.434-14.299-14.3-14.299H186.466
				c-7.858,0-14.294,6.441-14.294,14.299v43.479c0,7.855,6.436,14.288,14.294,14.288h7.895c7.859,0,14.295,6.434,14.295,14.296
				V98.64c-19.043,3.028-37.139,8.891-53.87,17.127L133.6,85.86c-3.784-5.35-11.187-6.608-16.535-2.828l-31.461,22.282
				c-5.351,3.788-6.615,11.188-2.825,16.542l21.361,30.169c-34.581,34.513-56.008,82.215-56.008,134.827
				c0,105.084,85.499,190.583,190.586,190.583c105.09,0,190.584-85.499,190.584-190.583
				C429.302,232.896,406.767,184.117,370.619,149.412z M238.718,431.698c-79.866,0-144.845-64.983-144.845-144.847
				c0-79.869,64.979-144.848,144.845-144.848c79.867,0,144.848,64.979,144.848,144.848
				C383.566,366.715,318.585,431.698,238.718,431.698z"/>
			<path d="M238.718,167.411c-0.322,0-0.635,0.029-0.951,0.029v118.455h120.358C357.615,220.476,304.254,167.411,238.718,167.411z"
				/>
		</g>
	</g>
</g>
<g>
</g>
<g>
</g>
<g>
</g>
<g>
</g>
<g>
</g>
<g>
</g>
<g>
</g>
<g>
</g>
<g>
</g>
<g>
</g>
<g>
</g>
<g>
</g>
<g>
</g>
<g>
</g>
<g>
</g>
</svg>
